<svg width="281" height="280" viewBox="0 0 281 280" fill="none" xmlns="http://www.w3.org/2000/svg">
<rect x="0.24469" width="280" height="280" rx="140" fill="#80B918"/>
<path d="M236.922 163.958C236.565 165.292 237.356 166.663 238.69 167.02C240.024 167.377 241.395 166.586 241.752 165.252L236.922 163.958ZM220.185 71.9645L218.225 73.5161L220.185 71.9645ZM182.035 41.8372L183.09 39.5706L182.035 41.8372ZM87.478 44.6806L88.6672 46.8796L87.478 44.6806ZM51.2073 77.0459L53.2572 78.4768L51.2073 77.0459ZM33.3311 122.251L30.8569 121.893L33.3311 122.251ZM35.2846 171.461C35.7215 172.771 37.1374 173.478 38.4472 173.041C39.757 172.605 40.4646 171.189 40.0278 169.879L35.2846 171.461ZM135.086 185.232C135.086 186.612 136.205 187.732 137.586 187.732C138.966 187.732 140.086 186.612 140.086 185.232H135.086ZM150.91 185.246C150.91 186.627 152.029 187.746 153.41 187.746C154.79 187.746 155.91 186.627 155.91 185.246H150.91ZM119.261 185.246C119.261 186.627 120.38 187.746 121.761 187.746C123.142 187.746 124.261 186.627 124.261 185.246H119.261ZM127.203 97.7795C128.583 97.7795 129.703 96.6602 129.703 95.2795C129.703 93.8988 128.583 92.7795 127.203 92.7795V97.7795ZM100.22 126.434L97.7199 126.395C97.7198 126.403 97.7197 126.412 97.7196 126.421L100.22 126.434ZM102.309 128.486L102.263 125.986L102.25 125.987L102.309 128.486ZM137.586 95.2795H135.086V95.2795L137.586 95.2795ZM140.086 86.9732C140.086 85.5925 138.966 84.4732 137.586 84.4732C136.205 84.4732 135.086 85.5925 135.086 86.9732H140.086ZM120.663 107.335C119.293 107.506 118.321 108.756 118.492 110.126C118.663 111.496 119.913 112.467 121.283 112.296L120.663 107.335ZM146.59 115.881C145.21 115.881 144.09 117 144.09 118.381C144.09 119.762 145.21 120.881 146.59 120.881V115.881ZM169.991 145.4L172.491 145.387C172.491 145.378 172.491 145.369 172.491 145.361L169.991 145.4ZM168.18 147.18L168.238 144.68L168.226 144.68L168.18 147.18ZM137.586 118.381H135.086H137.586ZM140.086 111.178C140.086 109.797 138.966 108.678 137.586 108.678C136.205 108.678 135.086 109.797 135.086 111.178H140.086ZM151.683 133.468C153.053 133.64 154.302 132.668 154.474 131.298C154.645 129.928 153.673 128.678 152.303 128.507L151.683 133.468ZM241.752 165.252C246.104 149.01 246.598 131.975 243.193 115.508L238.297 116.52C241.543 132.224 241.073 148.469 236.922 163.958L241.752 165.252ZM243.193 115.508C239.789 99.0408 232.581 83.5981 222.145 70.413L218.225 73.5161C228.177 86.0898 235.05 100.817 238.297 116.52L243.193 115.508ZM222.145 70.413C211.709 57.2279 198.335 46.6659 183.09 39.5706L180.98 44.1037C195.518 50.87 208.273 60.9423 218.225 73.5161L222.145 70.413ZM183.09 39.5706C167.845 32.4753 151.152 29.0433 134.344 29.5487L134.494 34.5465C150.523 34.0645 166.442 37.3374 180.98 44.1037L183.09 39.5706ZM134.344 29.5487C117.536 30.0542 101.08 34.483 86.2888 42.4815L88.6672 46.8796C102.772 39.252 118.466 35.0285 134.494 34.5465L134.344 29.5487ZM86.2888 42.4815C71.4977 50.4801 58.782 61.8266 49.1573 75.6149L53.2572 78.4768C62.4357 65.3278 74.5619 54.5073 88.6672 46.8796L86.2888 42.4815ZM49.1573 75.6149C39.5326 89.4032 33.2656 105.251 30.8569 121.893L35.8053 122.609C38.1023 106.739 44.0788 91.6259 53.2572 78.4768L49.1573 75.6149ZM30.8569 121.893C28.4481 138.535 29.9644 155.509 35.2846 171.461L40.0278 169.879C34.9542 154.667 33.5083 138.48 35.8053 122.609L30.8569 121.893ZM203.296 136.445C203.296 172.736 173.876 202.156 137.586 202.156V207.156C176.638 207.156 208.296 175.498 208.296 136.445H203.296ZM137.586 202.156C101.295 202.156 71.8752 172.736 71.8752 136.445H66.8752C66.8752 175.498 98.5333 207.156 137.586 207.156V202.156ZM71.8752 136.445C71.8752 100.154 101.295 70.7349 137.586 70.7349V65.7349C98.5333 65.7349 66.8752 97.3931 66.8752 136.445H71.8752ZM137.586 70.7349C173.876 70.7349 203.296 100.154 203.296 136.445H208.296C208.296 97.3931 176.638 65.7349 137.586 65.7349V70.7349ZM150.91 169.422V185.246H155.91V169.422H150.91ZM124.261 185.246V169.422H119.261V185.246H124.261ZM137.585 156.098C144.944 156.098 150.91 162.063 150.91 169.422H155.91C155.91 159.302 147.706 151.098 137.585 151.098V156.098ZM137.585 151.098C127.465 151.098 119.261 159.302 119.261 169.422H124.261C124.261 162.063 130.227 156.098 137.585 156.098V151.098ZM127.203 92.7795C120.635 92.7795 115.407 94.1792 111.282 96.574C107.153 98.9707 104.272 102.282 102.276 105.881C98.3348 112.989 97.8009 121.314 97.7199 126.395L102.719 126.474C102.798 121.518 103.344 114.266 106.649 108.306C108.276 105.371 110.559 102.775 113.792 100.898C117.028 99.0196 121.358 97.7795 127.203 97.7795V92.7795ZM97.7196 126.421C97.7164 127.028 97.835 127.63 98.0685 128.191L102.684 126.269C102.708 126.326 102.72 126.386 102.72 126.448L97.7196 126.421ZM98.0685 128.191C98.3019 128.752 98.6455 129.26 99.0788 129.685L102.582 126.118C102.626 126.161 102.661 126.212 102.684 126.269L98.0685 128.191ZM99.0788 129.685C99.5121 130.111 100.026 130.445 100.591 130.669L102.429 126.019C102.487 126.041 102.538 126.075 102.582 126.118L99.0788 129.685ZM100.591 130.669C101.156 130.892 101.76 131 102.367 130.985L102.25 125.987C102.311 125.985 102.372 125.996 102.429 126.019L100.591 130.669ZM102.355 130.986C120.306 130.656 130.133 126.129 135.223 118.871C140.167 111.82 140.086 102.816 140.086 95.2795H135.086C135.086 103.199 135.004 110.474 131.129 116C127.399 121.319 119.588 125.668 102.263 125.986L102.355 130.986ZM140.086 95.2795V86.9732H135.086V95.2795H140.086ZM137.586 95.2795C135.086 95.2795 135.086 95.2779 135.086 95.2764C135.086 95.2759 135.086 95.2744 135.086 95.2735C135.086 95.2717 135.086 95.2701 135.086 95.2686C135.086 95.2658 135.086 95.2636 135.086 95.2621C135.086 95.2592 135.086 95.2591 135.086 95.2617C135.085 95.2669 135.085 95.2831 135.084 95.3095C135.082 95.3624 135.076 95.4559 135.064 95.5847C135.04 95.8428 134.989 96.2385 134.882 96.7304C134.669 97.7181 134.239 99.0622 133.38 100.459C131.726 103.146 128.266 106.384 120.663 107.335L121.283 112.296C130.293 111.17 135.139 107.14 137.638 103.079C138.855 101.101 139.464 99.2003 139.769 97.787C139.923 97.0784 140.001 96.4845 140.042 96.0532C140.062 95.8372 140.073 95.6609 140.079 95.5303C140.082 95.465 140.084 95.4109 140.084 95.3689C140.085 95.3479 140.085 95.3299 140.085 95.3149C140.085 95.3075 140.085 95.3008 140.085 95.2949C140.085 95.2919 140.085 95.2892 140.086 95.2866C140.086 95.2853 140.086 95.2835 140.086 95.2829C140.086 95.2812 140.086 95.2795 137.586 95.2795ZM146.59 120.881C151.611 120.881 155.307 121.946 158.054 123.541C160.798 125.134 162.739 127.338 164.125 129.839C166.949 134.932 167.423 141.15 167.492 145.44L172.491 145.361C172.421 140.947 171.958 133.655 168.498 127.415C166.743 124.249 164.205 121.33 160.564 119.217C156.928 117.106 152.334 115.881 146.59 115.881V120.881ZM167.491 145.414C167.491 145.316 167.51 145.22 167.547 145.129L172.163 147.051C172.383 146.524 172.494 145.958 172.491 145.387L167.491 145.414ZM167.547 145.129C167.585 145.039 167.64 144.958 167.71 144.889L171.213 148.457C171.621 148.056 171.944 147.579 172.163 147.051L167.547 145.129ZM167.71 144.889C167.779 144.821 167.862 144.767 167.953 144.731L169.791 149.381C170.322 149.171 170.806 148.857 171.213 148.457L167.71 144.889ZM167.953 144.731C168.044 144.695 168.141 144.678 168.238 144.68L168.121 149.679C168.692 149.692 169.26 149.591 169.791 149.381L167.953 144.731ZM168.226 144.68C153.242 144.405 146.601 140.645 143.457 136.161C140.167 131.47 140.086 125.274 140.086 118.381H135.086C135.086 124.892 135.004 132.815 139.363 139.032C143.867 145.455 152.524 149.393 168.134 149.679L168.226 144.68ZM140.086 118.381V111.178H135.086V118.381H140.086ZM137.586 118.381C135.086 118.381 135.086 118.383 135.086 118.385C135.086 118.385 135.086 118.387 135.086 118.388C135.086 118.391 135.086 118.393 135.086 118.396C135.086 118.402 135.086 118.408 135.086 118.415C135.086 118.43 135.086 118.446 135.087 118.466C135.087 118.505 135.089 118.554 135.092 118.613C135.097 118.732 135.107 118.89 135.125 119.083C135.161 119.469 135.231 119.997 135.367 120.626C135.638 121.88 136.178 123.565 137.257 125.319C139.481 128.933 143.776 132.48 151.683 133.468L152.303 128.507C145.803 127.694 142.894 124.939 141.516 122.699C140.794 121.526 140.433 120.398 140.254 119.569C140.165 119.157 140.123 118.827 140.103 118.615C140.093 118.509 140.089 118.433 140.087 118.393C140.086 118.372 140.086 118.361 140.085 118.359C140.085 118.358 140.086 118.359 140.086 118.363C140.086 118.364 140.086 118.367 140.086 118.37C140.086 118.372 140.086 118.373 140.086 118.375C140.086 118.376 140.086 118.378 140.086 118.378C140.086 118.38 140.086 118.381 137.586 118.381ZM135.086 68.2349V185.232H140.086V68.2349H135.086Z" fill="white"/>
<circle cx="137.745" cy="234.547" r="5.03526" stroke="white" stroke-width="4"/>
</svg>
