<svg width="280" height="280" viewBox="0 0 280 280" fill="none" xmlns="http://www.w3.org/2000/svg">
<rect width="280" height="280" rx="140" fill="#80B918"/>
<path d="M236.678 163.958C236.32 165.292 237.112 166.663 238.445 167.02C239.779 167.377 241.15 166.586 241.507 165.252L236.678 163.958ZM219.94 71.9645L217.98 73.5161L219.94 71.9645ZM181.79 41.8372L182.845 39.5706L181.79 41.8372ZM87.2333 44.6806L88.4225 46.8796L87.2333 44.6806ZM50.9626 77.0459L53.0126 78.4768L50.9626 77.0459ZM33.0864 122.251L30.6122 121.893L33.0864 122.251ZM35.04 171.461C35.4768 172.771 36.8927 173.478 38.2025 173.041C39.5123 172.605 40.2199 171.189 39.7831 169.879L35.04 171.461ZM134.841 185.232C134.841 186.612 135.96 187.732 137.341 187.732C138.722 187.732 139.841 186.612 139.841 185.232H134.841ZM150.665 185.246C150.665 186.627 151.784 187.746 153.165 187.746C154.546 187.746 155.665 186.627 155.665 185.246H150.665ZM119.016 185.246C119.016 186.627 120.136 187.746 121.516 187.746C122.897 187.746 124.016 186.627 124.016 185.246H119.016ZM126.958 97.7795C128.339 97.7795 129.458 96.6602 129.458 95.2795C129.458 93.8988 128.339 92.7795 126.958 92.7795V97.7795ZM99.9749 126.434L97.4752 126.395C97.4751 126.403 97.475 126.412 97.475 126.421L99.9749 126.434ZM102.064 128.486L102.018 125.986L102.005 125.987L102.064 128.486ZM137.341 95.2795H134.841V95.2795L137.341 95.2795ZM139.841 86.9732C139.841 85.5925 138.722 84.4732 137.341 84.4732C135.96 84.4732 134.841 85.5925 134.841 86.9732H139.841ZM120.418 107.335C119.048 107.506 118.076 108.756 118.248 110.126C118.419 111.496 119.668 112.467 121.038 112.296L120.418 107.335ZM146.346 115.881C144.965 115.881 143.846 117 143.846 118.381C143.846 119.762 144.965 120.881 146.346 120.881V115.881ZM169.747 145.4L172.247 145.387C172.247 145.378 172.246 145.369 172.246 145.361L169.747 145.4ZM167.935 147.18L167.993 144.68L167.981 144.68L167.935 147.18ZM137.341 118.381H134.841H137.341ZM139.841 111.178C139.841 109.797 138.722 108.678 137.341 108.678C135.96 108.678 134.841 109.797 134.841 111.178H139.841ZM151.438 133.468C152.808 133.64 154.058 132.668 154.229 131.298C154.4 129.928 153.428 128.678 152.058 128.507L151.438 133.468ZM241.507 165.252C245.859 149.01 246.353 131.975 242.949 115.508L238.052 116.52C241.299 132.224 240.828 148.469 236.678 163.958L241.507 165.252ZM242.949 115.508C239.544 99.0408 232.336 83.5981 221.9 70.413L217.98 73.5161C227.932 86.0898 234.806 100.817 238.052 116.52L242.949 115.508ZM221.9 70.413C211.465 57.2279 198.09 46.6659 182.845 39.5706L180.735 44.1037C195.273 50.87 208.028 60.9423 217.98 73.5161L221.9 70.413ZM182.845 39.5706C167.6 32.4753 150.907 29.0433 134.099 29.5487L134.25 34.5465C150.278 34.0645 166.197 37.3374 180.735 44.1037L182.845 39.5706ZM134.099 29.5487C117.292 30.0542 100.835 34.483 86.0441 42.4815L88.4225 46.8796C102.528 39.252 118.221 35.0285 134.25 34.5465L134.099 29.5487ZM86.0441 42.4815C71.253 50.4801 58.5373 61.8266 48.9126 75.6149L53.0126 78.4768C62.191 65.3278 74.3172 54.5073 88.4225 46.8796L86.0441 42.4815ZM48.9126 75.6149C39.2879 89.4032 33.0209 105.251 30.6122 121.893L35.5606 122.609C37.8577 106.739 43.8341 91.6259 53.0126 78.4768L48.9126 75.6149ZM30.6122 121.893C28.2034 138.535 29.7197 155.509 35.04 171.461L39.7831 169.879C34.7096 154.667 33.2636 138.48 35.5606 122.609L30.6122 121.893ZM203.051 136.445C203.051 172.736 173.632 202.156 137.341 202.156V207.156C176.393 207.156 208.051 175.498 208.051 136.445H203.051ZM137.341 202.156C101.05 202.156 71.6305 172.736 71.6305 136.445H66.6305C66.6305 175.498 98.2886 207.156 137.341 207.156V202.156ZM71.6305 136.445C71.6305 100.154 101.05 70.7349 137.341 70.7349V65.7349C98.2886 65.7349 66.6305 97.3931 66.6305 136.445H71.6305ZM137.341 70.7349C173.632 70.7349 203.051 100.154 203.051 136.445H208.051C208.051 97.3931 176.393 65.7349 137.341 65.7349V70.7349ZM150.665 169.422V185.246H155.665V169.422H150.665ZM124.016 185.246V169.422H119.016V185.246H124.016ZM137.341 156.098C144.7 156.098 150.665 162.063 150.665 169.422H155.665C155.665 159.302 147.461 151.098 137.341 151.098V156.098ZM137.341 151.098C127.221 151.098 119.016 159.302 119.016 169.422H124.016C124.016 162.063 129.982 156.098 137.341 156.098V151.098ZM126.958 92.7795C120.391 92.7795 115.162 94.1792 111.037 96.574C106.908 98.9707 104.027 102.282 102.031 105.881C98.0901 112.989 97.5562 121.314 97.4752 126.395L102.475 126.474C102.554 121.518 103.099 114.266 106.404 108.306C108.031 105.371 110.314 102.775 113.547 100.898C116.783 99.0196 121.113 97.7795 126.958 97.7795V92.7795ZM97.475 126.421C97.4717 127.028 97.5903 127.63 97.8238 128.191L102.44 126.269C102.463 126.326 102.475 126.386 102.475 126.448L97.475 126.421ZM97.8238 128.191C98.0572 128.752 98.4008 129.26 98.8341 129.685L102.338 126.118C102.381 126.161 102.416 126.212 102.44 126.269L97.8238 128.191ZM98.8341 129.685C99.2675 130.111 99.7818 130.445 100.347 130.669L102.185 126.019C102.242 126.041 102.294 126.075 102.338 126.118L98.8341 129.685ZM100.347 130.669C100.911 130.892 101.515 131 102.122 130.985L102.005 125.987C102.067 125.985 102.128 125.996 102.185 126.019L100.347 130.669ZM102.11 130.986C120.062 130.656 129.889 126.129 134.978 118.871C139.922 111.82 139.841 102.816 139.841 95.2795H134.841C134.841 103.199 134.759 110.474 130.884 116C127.155 121.319 119.343 125.668 102.018 125.986L102.11 130.986ZM139.841 95.2795V86.9732H134.841V95.2795H139.841ZM137.341 95.2795C134.841 95.2795 134.841 95.2779 134.841 95.2764C134.841 95.2759 134.841 95.2744 134.841 95.2735C134.841 95.2717 134.841 95.2701 134.841 95.2686C134.841 95.2658 134.841 95.2636 134.841 95.2621C134.841 95.2592 134.841 95.2591 134.841 95.2617C134.841 95.2669 134.84 95.2831 134.839 95.3095C134.837 95.3624 134.831 95.4559 134.819 95.5847C134.795 95.8428 134.744 96.2385 134.638 96.7304C134.424 97.7181 133.994 99.0622 133.135 100.459C131.481 103.146 128.021 106.384 120.418 107.335L121.038 112.296C130.048 111.17 134.894 107.14 137.393 103.079C138.611 101.101 139.219 99.2003 139.525 97.787C139.678 97.0784 139.757 96.4845 139.797 96.0532C139.818 95.8372 139.829 95.6609 139.834 95.5303C139.837 95.465 139.839 95.4109 139.84 95.3689C139.84 95.3479 139.84 95.3299 139.841 95.3149C139.841 95.3075 139.841 95.3008 139.841 95.2949C139.841 95.2919 139.841 95.2892 139.841 95.2866C139.841 95.2853 139.841 95.2835 139.841 95.2829C139.841 95.2812 139.841 95.2795 137.341 95.2795ZM146.346 120.881C151.366 120.881 155.062 121.946 157.81 123.541C160.554 125.134 162.494 127.338 163.881 129.839C166.704 134.932 167.179 141.15 167.247 145.44L172.246 145.361C172.176 140.947 171.714 133.655 168.254 127.415C166.498 124.249 163.96 121.33 160.32 119.217C156.683 117.106 152.089 115.881 146.346 115.881V120.881ZM167.247 145.414C167.246 145.316 167.265 145.22 167.303 145.129L171.919 147.051C172.138 146.524 172.25 145.958 172.247 145.387L167.247 145.414ZM167.303 145.129C167.34 145.039 167.395 144.958 167.465 144.889L170.969 148.457C171.376 148.056 171.699 147.579 171.919 147.051L167.303 145.129ZM167.465 144.889C167.535 144.821 167.617 144.767 167.708 144.731L169.546 149.381C170.077 149.171 170.561 148.857 170.969 148.457L167.465 144.889ZM167.708 144.731C167.799 144.695 167.896 144.678 167.993 144.68L167.876 149.679C168.447 149.692 169.015 149.591 169.546 149.381L167.708 144.731ZM167.981 144.68C152.997 144.405 146.356 140.645 143.212 136.161C139.922 131.47 139.841 125.274 139.841 118.381H134.841C134.841 124.892 134.759 132.815 139.118 139.032C143.622 145.455 152.279 149.393 167.889 149.679L167.981 144.68ZM139.841 118.381V111.178H134.841V118.381H139.841ZM137.341 118.381C134.841 118.381 134.841 118.383 134.841 118.385C134.841 118.385 134.841 118.387 134.841 118.388C134.841 118.391 134.841 118.393 134.841 118.396C134.841 118.402 134.841 118.408 134.841 118.415C134.841 118.43 134.842 118.446 134.842 118.466C134.843 118.505 134.844 118.554 134.847 118.613C134.852 118.732 134.862 118.89 134.88 119.083C134.916 119.469 134.987 119.997 135.123 120.626C135.394 121.88 135.933 123.565 137.013 125.319C139.236 128.933 143.531 132.48 151.438 133.468L152.058 128.507C145.558 127.694 142.649 124.939 141.271 122.699C140.55 121.526 140.189 120.398 140.01 119.569C139.92 119.157 139.878 118.827 139.858 118.615C139.848 118.509 139.844 118.433 139.842 118.393C139.841 118.372 139.841 118.361 139.841 118.359C139.841 118.358 139.841 118.359 139.841 118.363C139.841 118.364 139.841 118.367 139.841 118.37C139.841 118.372 139.841 118.373 139.841 118.375C139.841 118.376 139.841 118.378 139.841 118.378C139.841 118.38 139.841 118.381 137.341 118.381ZM134.841 68.2349V185.232H139.841V68.2349H134.841Z" fill="white"/>
<path d="M54.763 215.339L66.8323 202.928L69.3099 205.337L66.8782 207.838L67.0057 207.248C68.0693 206.705 69.078 206.555 70.0318 206.798C71.0005 207.026 71.9131 207.556 72.7696 208.389L73.5267 209.125L71.2288 211.488L70.1506 210.44C69.2941 209.607 68.338 209.198 67.2821 209.213C66.2564 209.227 65.2677 209.723 64.3158 210.702L57.3553 217.86L54.763 215.339Z" fill="white"/>
<path d="M72.1725 230.577C71.1938 229.93 70.4426 229.19 69.9188 228.358C69.4246 227.52 69.1729 226.663 69.1637 225.787C69.1663 224.894 69.4441 224.029 69.9972 223.192C70.515 222.409 71.1488 221.818 71.8988 221.419C72.6665 221.032 73.5564 220.866 74.5684 220.921C75.5804 220.976 76.6968 221.28 77.9177 221.832L83.4829 224.323L81.912 226.698L76.9693 224.542C76.0744 224.155 75.3166 224.025 74.6958 224.151C74.0868 224.26 73.594 224.599 73.2174 225.168C72.8526 225.72 72.7572 226.309 72.9311 226.936C73.1346 227.556 73.5655 228.084 74.2239 228.52C75.0425 229.061 75.8719 229.354 76.7123 229.398C77.5704 229.454 78.3627 229.3 79.0891 228.936C79.8273 228.555 80.4376 227.999 80.9201 227.27L83.3736 223.56C83.8443 222.848 83.9598 222.093 83.7202 221.295C83.5101 220.491 82.9691 219.801 82.0972 219.224C81.2964 218.695 80.4523 218.444 79.5649 218.471C78.707 218.492 77.9181 218.737 77.198 219.207L75.5186 216.294C76.2562 215.758 77.104 215.424 78.062 215.29C79.0318 215.138 80.0171 215.176 81.0179 215.403C82.0365 215.642 82.9995 216.062 83.9071 216.662C85.0459 217.415 85.9101 218.293 86.4996 219.297C87.1069 220.312 87.3977 221.361 87.3722 222.444C87.3762 223.521 87.0487 224.558 86.3897 225.554L79.9647 235.27L77.082 233.364L78.8118 230.748L79.3728 231.234C78.6464 231.598 77.875 231.816 77.0588 231.891C76.2603 231.976 75.4465 231.911 74.6174 231.695C73.806 231.491 72.9911 231.119 72.1725 230.577Z" fill="white"/>
<path d="M93.6316 242.06L93.5024 223.754L97.1425 224.976L97.0579 239.498L95.7839 239.07L104.574 227.473L107.699 228.523L107.675 243.064L106.401 242.636L115.131 231.019L118.771 232.242L107.585 246.747L104.491 245.708L104.556 230.843L105.679 231.22L96.756 243.109L93.6316 242.06Z" fill="white"/>
<path d="M129.027 250.552C127.261 250.423 125.74 249.873 124.463 248.902C123.208 247.934 122.368 246.696 121.944 245.189L124.816 244.083C125.212 245.096 125.794 245.92 126.56 246.553C127.348 247.188 128.242 247.543 129.242 247.616C130.093 247.678 130.799 247.537 131.358 247.193C131.918 246.849 132.222 246.347 132.271 245.688C132.302 245.262 132.21 244.913 131.994 244.641C131.781 244.347 131.499 244.102 131.15 243.905C130.822 243.71 130.48 243.557 130.125 243.445L127.468 242.481C126.01 241.946 124.939 241.226 124.257 240.321C123.597 239.395 123.31 238.358 123.394 237.209C123.47 236.167 123.802 235.282 124.39 234.555C124.98 233.807 125.758 233.254 126.725 232.897C127.693 232.54 128.761 232.404 129.932 232.49C131.506 232.605 132.881 233.101 134.058 233.979C135.236 234.835 136.03 235.973 136.439 237.394L133.567 238.499C133.287 237.644 132.793 236.945 132.084 236.401C131.396 235.859 130.595 235.554 129.68 235.487C128.893 235.43 128.251 235.575 127.755 235.924C127.261 236.252 126.992 236.713 126.948 237.309C126.918 237.713 127 238.061 127.192 238.353C127.386 238.624 127.647 238.857 127.975 239.052C128.305 239.226 128.647 239.38 129.001 239.513L131.748 240.548C133.144 241.056 134.193 241.775 134.896 242.703C135.599 243.61 135.907 244.66 135.82 245.851C135.746 246.872 135.403 247.756 134.792 248.503C134.204 249.23 133.415 249.782 132.425 250.159C131.436 250.514 130.304 250.645 129.027 250.552Z" fill="white"/>
<path d="M145.718 250.41L142.411 226.412L145.993 225.919L147.4 236.126L146.768 235.761C147.042 234.625 147.606 233.718 148.46 233.041C149.312 232.342 150.35 231.908 151.576 231.739C152.844 231.564 154.002 231.685 155.05 232.1C156.098 232.516 156.963 233.172 157.647 234.068C158.33 234.965 158.758 236.036 158.93 237.283L160.459 248.378L156.908 248.868L155.515 238.755C155.395 237.889 155.126 237.183 154.706 236.638C154.304 236.068 153.797 235.665 153.182 235.426C152.565 235.167 151.887 235.088 151.147 235.19C150.428 235.289 149.797 235.548 149.251 235.968C148.725 236.364 148.334 236.891 148.081 237.551C147.848 238.207 147.79 238.958 147.906 239.804L149.3 249.916L145.718 250.41Z" fill="white"/>
<path d="M175.393 244.418C174.293 244.827 173.253 244.998 172.272 244.93C171.303 244.835 170.463 244.533 169.75 244.025C169.03 243.496 168.495 242.761 168.145 241.822C167.818 240.942 167.714 240.081 167.834 239.24C167.974 238.392 168.364 237.575 169.006 236.79C169.647 236.006 170.55 235.283 171.716 234.622L177.009 231.595L178.001 234.264L173.346 236.986C172.506 237.48 171.954 238.016 171.69 238.592C171.419 239.148 171.402 239.746 171.64 240.386C171.871 241.005 172.29 241.43 172.899 241.659C173.52 241.86 174.2 241.823 174.94 241.548C175.86 241.206 176.585 240.709 177.117 240.056C177.668 239.396 178.011 238.665 178.145 237.864C178.272 237.043 178.183 236.222 177.878 235.402L176.328 231.233C176.03 230.434 175.489 229.895 174.703 229.619C173.93 229.314 173.053 229.344 172.074 229.709C171.174 230.043 170.473 230.577 169.972 231.31C169.483 232.015 169.216 232.797 169.171 233.656L165.828 233.295C165.83 232.383 166.06 231.501 166.517 230.649C166.966 229.776 167.577 229.002 168.351 228.328C169.144 227.646 170.051 227.115 171.07 226.736C172.35 226.26 173.569 226.08 174.727 226.195C175.906 226.303 176.925 226.687 177.784 227.346C178.656 227.978 179.301 228.853 179.717 229.973L183.777 240.89L180.538 242.095L179.445 239.156L180.168 238.989C180.034 239.79 179.756 240.542 179.334 241.245C178.933 241.941 178.401 242.56 177.738 243.103C177.094 243.638 176.313 244.076 175.393 244.418Z" fill="white"/>
<path d="M193.274 235.997L184.326 221.177L187.284 219.39L189.087 222.376L188.548 222.103C188.293 220.937 188.403 219.923 188.88 219.062C189.346 218.183 190.09 217.434 191.113 216.817L192.017 216.271L193.721 219.093L192.433 219.87C191.411 220.487 190.773 221.309 190.519 222.334C190.273 223.33 190.503 224.412 191.209 225.581L196.369 234.128L193.274 235.997Z" fill="white"/>
<path d="M214.636 221.034C213.354 222.193 211.95 222.93 210.423 223.245C208.899 223.531 207.401 223.418 205.932 222.905C204.448 222.377 203.134 221.48 201.99 220.214C200.817 218.916 200.057 217.518 199.71 216.021C199.378 214.508 199.43 213.038 199.864 211.61C200.285 210.167 201.096 208.901 202.299 207.814C203.265 206.941 204.277 206.328 205.337 205.974C206.398 205.619 207.453 205.499 208.505 205.613C209.542 205.71 210.532 206.009 211.473 206.51C212.43 206.997 213.288 207.659 214.046 208.498C214.232 208.704 214.417 208.925 214.601 209.16C214.786 209.396 214.94 209.631 215.064 209.864L204.832 219.111L202.901 216.975L211.614 209.1L211.212 211.232C210.669 210.314 209.991 209.675 209.179 209.317C208.368 208.929 207.536 208.803 206.683 208.942C205.832 209.05 205.05 209.425 204.338 210.069C203.625 210.713 203.157 211.467 202.932 212.332C202.693 213.181 202.723 214.073 203.023 215.01C203.309 215.931 203.905 216.829 204.813 217.706C205.52 218.648 206.326 219.3 207.229 219.663C208.147 220.011 209.064 220.103 209.979 219.938C210.909 219.758 211.754 219.325 212.514 218.639C213.29 217.938 213.789 217.17 214.012 216.335C214.252 215.487 214.279 214.642 214.095 213.802L217.245 212.896C217.535 213.727 217.633 214.63 217.538 215.607C217.445 216.554 217.155 217.506 216.669 218.463C216.184 219.39 215.506 220.247 214.636 221.034Z" fill="white"/>
</svg>
